<?xml version="1.0" encoding="UTF-8" standalone="no"?>
<!DOCTYPE svg PUBLIC "-//W3C//DTD SVG 1.1//EN"
 "http://www.w3.org/Graphics/SVG/1.1/DTD/svg11.dtd">
<!-- Generated by graphviz version 2.40.1 (20161225.0304)
 -->
<!-- Title: G Pages: 1 -->
<svg width="1208pt" height="362pt"
 viewBox="0.00 0.00 1207.80 362.00" xmlns="http://www.w3.org/2000/svg" xmlns:xlink="http://www.w3.org/1999/xlink">
<g id="graph0" class="graph" transform="scale(1 1) rotate(0) translate(4 358)">
<title>G</title>
<polygon fill="#ffffff" stroke="transparent" points="-4,4 -4,-358 1203.7965,-358 1203.7965,4 -4,4"/>
<!-- Axe(0.1.0) -->
<g id="node1" class="node">
<title>Axe(0.1.0)</title>
<ellipse fill="none" stroke="#000000" cx="425.7318" cy="-250" rx="48.3341" ry="18"/>
<text text-anchor="middle" x="425.7318" y="-245.8" font-family="Times,serif" font-size="14.00" fill="#000000">Axe(0.1.0)</text>
</g>
<!-- WebViewJavascriptBridge(6.0.3) -->
<g id="node2" class="node">
<title>WebViewJavascriptBridge(6.0.3)</title>
<ellipse fill="none" stroke="#000000" cx="127.7318" cy="-177" rx="127.9641" ry="18"/>
<text text-anchor="middle" x="127.7318" y="-172.8" font-family="Times,serif" font-size="14.00" fill="#000000">WebViewJavascriptBridge(6.0.3)</text>
</g>
<!-- Axe(0.1.0)&#45;&gt;WebViewJavascriptBridge(6.0.3) -->
<g id="edge1" class="edge">
<title>Axe(0.1.0)&#45;&gt;WebViewJavascriptBridge(6.0.3)</title>
<path fill="none" stroke="#000000" d="M385.2321,-240.0789C338.1459,-228.5444 259.4857,-209.2753 201.4697,-195.0633"/>
<polygon fill="#000000" stroke="#000000" points="202.1638,-191.6299 191.6182,-192.65 200.4982,-198.4289 202.1638,-191.6299"/>
</g>
<!-- OfflinePackage(0.1.0) -->
<g id="node3" class="node">
<title>OfflinePackage(0.1.0)</title>
<ellipse fill="none" stroke="#000000" cx="361.7318" cy="-177" rx="88.3997" ry="18"/>
<text text-anchor="middle" x="361.7318" y="-172.8" font-family="Times,serif" font-size="14.00" fill="#000000">OfflinePackage(0.1.0)</text>
</g>
<!-- Axe(0.1.0)&#45;&gt;OfflinePackage(0.1.0) -->
<g id="edge2" class="edge">
<title>Axe(0.1.0)&#45;&gt;OfflinePackage(0.1.0)</title>
<path fill="none" stroke="#000000" d="M410.5647,-232.7C402.6896,-223.7175 392.9131,-212.5661 384.1811,-202.6062"/>
<polygon fill="#000000" stroke="#000000" points="386.6826,-200.1502 377.4584,-194.9381 381.419,-204.7649 386.6826,-200.1502"/>
</g>
<!-- MXReact(0.54.1) -->
<g id="node4" class="node">
<title>MXReact(0.54.1)</title>
<ellipse fill="none" stroke="#000000" cx="540.7318" cy="-177" rx="72.4722" ry="18"/>
<text text-anchor="middle" x="540.7318" y="-172.8" font-family="Times,serif" font-size="14.00" fill="#000000">MXReact(0.54.1)</text>
</g>
<!-- Axe(0.1.0)&#45;&gt;MXReact(0.54.1) -->
<g id="edge3" class="edge">
<title>Axe(0.1.0)&#45;&gt;MXReact(0.54.1)</title>
<path fill="none" stroke="#000000" d="M450.4022,-234.3397C466.5098,-224.1149 487.7863,-210.6089 505.6438,-199.2733"/>
<polygon fill="#000000" stroke="#000000" points="507.531,-202.221 514.0979,-193.9067 503.7795,-196.3111 507.531,-202.221"/>
</g>
<!-- MXRSA(0.0.4) -->
<g id="node9" class="node">
<title>MXRSA(0.0.4)</title>
<ellipse fill="none" stroke="#000000" cx="200.7318" cy="-91" rx="65.2736" ry="18"/>
<text text-anchor="middle" x="200.7318" y="-86.8" font-family="Times,serif" font-size="14.00" fill="#000000">MXRSA(0.0.4)</text>
</g>
<!-- OfflinePackage(0.1.0)&#45;&gt;MXRSA(0.0.4) -->
<g id="edge9" class="edge">
<title>OfflinePackage(0.1.0)&#45;&gt;MXRSA(0.0.4)</title>
<path fill="none" stroke="#000000" d="M329.9234,-160.0092C304.0706,-146.1996 267.4853,-126.6571 239.8435,-111.8919"/>
<polygon fill="#000000" stroke="#000000" points="241.3101,-108.7074 230.8406,-107.0829 238.012,-114.8817 241.3101,-108.7074"/>
</g>
<!-- SSZipArchive(2.1.2) -->
<g id="node10" class="node">
<title>SSZipArchive(2.1.2)</title>
<ellipse fill="none" stroke="#000000" cx="367.7318" cy="-91" rx="84.0668" ry="18"/>
<text text-anchor="middle" x="367.7318" y="-86.8" font-family="Times,serif" font-size="14.00" fill="#000000">SSZipArchive(2.1.2)</text>
</g>
<!-- OfflinePackage(0.1.0)&#45;&gt;SSZipArchive(2.1.2) -->
<g id="edge10" class="edge">
<title>OfflinePackage(0.1.0)&#45;&gt;SSZipArchive(2.1.2)</title>
<path fill="none" stroke="#000000" d="M363.0043,-158.7616C363.7998,-147.3597 364.8411,-132.4342 365.7439,-119.494"/>
<polygon fill="#000000" stroke="#000000" points="369.2567,-119.4315 366.4612,-109.2121 362.2736,-118.9442 369.2567,-119.4315"/>
</g>
<!-- Folly(2016.09.26.00) -->
<g id="node5" class="node">
<title>Folly(2016.09.26.00)</title>
<ellipse fill="none" stroke="#000000" cx="696.7318" cy="-91" rx="85.5448" ry="18"/>
<text text-anchor="middle" x="696.7318" y="-86.8" font-family="Times,serif" font-size="14.00" fill="#000000">Folly(2016.09.26.00)</text>
</g>
<!-- MXReact(0.54.1)&#45;&gt;Folly(2016.09.26.00) -->
<g id="edge7" class="edge">
<title>MXReact(0.54.1)&#45;&gt;Folly(2016.09.26.00)</title>
<path fill="none" stroke="#000000" d="M570.8102,-160.4183C595.4696,-146.8241 630.5622,-127.4781 657.4402,-112.6608"/>
<polygon fill="#000000" stroke="#000000" points="659.1458,-115.7172 666.2135,-107.8242 655.7663,-109.587 659.1458,-115.7172"/>
<text text-anchor="middle" x="679.3417" y="-129.8" font-family="Times,serif" font-size="14.00" fill="#000000">(= 2016.09.26.00)</text>
</g>
<!-- boost&#45;for&#45;react&#45;native(1.63.0) -->
<g id="node6" class="node">
<title>boost&#45;for&#45;react&#45;native(1.63.0)</title>
<ellipse fill="none" stroke="#000000" cx="481.7318" cy="-18" rx="115.056" ry="18"/>
<text text-anchor="middle" x="481.7318" y="-13.8" font-family="Times,serif" font-size="14.00" fill="#000000">boost&#45;for&#45;react&#45;native(1.63.0)</text>
</g>
<!-- MXReact(0.54.1)&#45;&gt;boost&#45;for&#45;react&#45;native(1.63.0) -->
<g id="edge8" class="edge">
<title>MXReact(0.54.1)&#45;&gt;boost&#45;for&#45;react&#45;native(1.63.0)</title>
<path fill="none" stroke="#000000" d="M534.0785,-159.0698C523.8094,-131.3954 504.0233,-78.0736 491.9363,-45.5002"/>
<polygon fill="#000000" stroke="#000000" points="495.2117,-44.2664 488.4514,-36.1087 488.649,-46.7017 495.2117,-44.2664"/>
<text text-anchor="middle" x="543.5917" y="-86.8" font-family="Times,serif" font-size="14.00" fill="#000000">(= 1.63.0)</text>
</g>
<!-- Folly(2016.09.26.00)&#45;&gt;boost&#45;for&#45;react&#45;native(1.63.0) -->
<g id="edge4" class="edge">
<title>Folly(2016.09.26.00)&#45;&gt;boost&#45;for&#45;react&#45;native(1.63.0)</title>
<path fill="none" stroke="#000000" d="M651.6608,-75.6968C619.1331,-64.6525 574.9354,-49.6459 539.7687,-37.7055"/>
<polygon fill="#000000" stroke="#000000" points="540.701,-34.3259 530.1066,-34.4249 538.4504,-40.9542 540.701,-34.3259"/>
</g>
<!-- DoubleConversion(1.1.5) -->
<g id="node7" class="node">
<title>DoubleConversion(1.1.5)</title>
<ellipse fill="none" stroke="#000000" cx="715.7318" cy="-18" rx="100.4865" ry="18"/>
<text text-anchor="middle" x="715.7318" y="-13.8" font-family="Times,serif" font-size="14.00" fill="#000000">DoubleConversion(1.1.5)</text>
</g>
<!-- Folly(2016.09.26.00)&#45;&gt;DoubleConversion(1.1.5) -->
<g id="edge5" class="edge">
<title>Folly(2016.09.26.00)&#45;&gt;DoubleConversion(1.1.5)</title>
<path fill="none" stroke="#000000" d="M701.4285,-72.9551C703.5523,-64.7951 706.1108,-54.9652 708.4731,-45.8887"/>
<polygon fill="#000000" stroke="#000000" points="711.8916,-46.6496 711.0234,-36.0904 705.1173,-44.8863 711.8916,-46.6496"/>
</g>
<!-- glog(0.3.4) -->
<g id="node8" class="node">
<title>glog(0.3.4)</title>
<ellipse fill="none" stroke="#000000" cx="883.7318" cy="-18" rx="49.3119" ry="18"/>
<text text-anchor="middle" x="883.7318" y="-13.8" font-family="Times,serif" font-size="14.00" fill="#000000">glog(0.3.4)</text>
</g>
<!-- Folly(2016.09.26.00)&#45;&gt;glog(0.3.4) -->
<g id="edge6" class="edge">
<title>Folly(2016.09.26.00)&#45;&gt;glog(0.3.4)</title>
<path fill="none" stroke="#000000" d="M737.7698,-74.9798C768.135,-63.126 809.4149,-47.0114 840.3279,-34.9438"/>
<polygon fill="#000000" stroke="#000000" points="841.9307,-38.0754 849.9733,-31.1785 839.3851,-31.5546 841.9307,-38.0754"/>
</g>
<!-- Ground(0.0.1) -->
<g id="node11" class="node">
<title>Ground(0.0.1)</title>
<ellipse fill="none" stroke="#000000" cx="685.7318" cy="-336" rx="60.9046" ry="18"/>
<text text-anchor="middle" x="685.7318" y="-331.8" font-family="Times,serif" font-size="14.00" fill="#000000">Ground(0.0.1)</text>
</g>
<!-- Ground(0.0.1)&#45;&gt;Axe(0.1.0) -->
<g id="edge11" class="edge">
<title>Ground(0.0.1)&#45;&gt;Axe(0.1.0)</title>
<path fill="none" stroke="#000000" d="M626.1745,-332.1532C568.0309,-327.4271 484.4792,-317.7566 457.4379,-300 448.9829,-294.4481 442.3431,-285.7763 437.3723,-277.2036"/>
<polygon fill="#000000" stroke="#000000" points="440.3505,-275.3447 432.6267,-268.0925 434.1421,-278.5784 440.3505,-275.3447"/>
<text text-anchor="middle" x="485.8788" y="-288.8" font-family="Times,serif" font-size="14.00" fill="#000000">(~&gt; 0.1.0)</text>
</g>
<!-- Ground(0.0.1)&#45;&gt;MXReact(0.54.1) -->
<g id="edge16" class="edge">
<title>Ground(0.0.1)&#45;&gt;MXReact(0.54.1)</title>
<path fill="none" stroke="#000000" d="M636.4978,-325.2896C605.3211,-315.7646 567.1592,-298.4541 546.7318,-268 534.4531,-249.6943 533.7549,-224.386 535.6729,-205.1053"/>
<polygon fill="#000000" stroke="#000000" points="539.1561,-205.4595 536.9508,-195.0967 532.2124,-204.5729 539.1561,-205.4595"/>
</g>
<!-- Bugly(2.5.0) -->
<g id="node12" class="node">
<title>Bugly(2.5.0)</title>
<ellipse fill="none" stroke="#000000" cx="610.7318" cy="-250" rx="55.1094" ry="18"/>
<text text-anchor="middle" x="610.7318" y="-245.8" font-family="Times,serif" font-size="14.00" fill="#000000">Bugly(2.5.0)</text>
</g>
<!-- Ground(0.0.1)&#45;&gt;Bugly(2.5.0) -->
<g id="edge12" class="edge">
<title>Ground(0.0.1)&#45;&gt;Bugly(2.5.0)</title>
<path fill="none" stroke="#000000" d="M670.1918,-318.1807C659.36,-305.7603 644.754,-289.0121 632.7291,-275.2235"/>
<polygon fill="#000000" stroke="#000000" points="635.2058,-272.7384 625.9954,-267.5022 629.9302,-277.3392 635.2058,-272.7384"/>
</g>
<!-- JSONModel(1.7.0) -->
<g id="node13" class="node">
<title>JSONModel(1.7.0)</title>
<ellipse fill="none" stroke="#000000" cx="761.7318" cy="-250" rx="77.8107" ry="18"/>
<text text-anchor="middle" x="761.7318" y="-245.8" font-family="Times,serif" font-size="14.00" fill="#000000">JSONModel(1.7.0)</text>
</g>
<!-- Ground(0.0.1)&#45;&gt;JSONModel(1.7.0) -->
<g id="edge13" class="edge">
<title>Ground(0.0.1)&#45;&gt;JSONModel(1.7.0)</title>
<path fill="none" stroke="#000000" d="M701.4791,-318.1807C712.3826,-305.8425 727.0602,-289.2337 739.1988,-275.4979"/>
<polygon fill="#000000" stroke="#000000" points="742.0054,-277.6074 746.0048,-267.7964 736.7601,-272.972 742.0054,-277.6074"/>
</g>
<!-- Masonry(1.1.0) -->
<g id="node14" class="node">
<title>Masonry(1.1.0)</title>
<ellipse fill="none" stroke="#000000" cx="922.7318" cy="-250" rx="65.2477" ry="18"/>
<text text-anchor="middle" x="922.7318" y="-245.8" font-family="Times,serif" font-size="14.00" fill="#000000">Masonry(1.1.0)</text>
</g>
<!-- Ground(0.0.1)&#45;&gt;Masonry(1.1.0) -->
<g id="edge14" class="edge">
<title>Ground(0.0.1)&#45;&gt;Masonry(1.1.0)</title>
<path fill="none" stroke="#000000" d="M724.3374,-321.9912C765.0298,-307.2252 829.2495,-283.9219 873.5444,-267.8486"/>
<polygon fill="#000000" stroke="#000000" points="874.7495,-271.1347 882.9559,-264.4335 872.3617,-264.5545 874.7495,-271.1347"/>
</g>
<!-- MBProgressHUD(1.1.0) -->
<g id="node15" class="node">
<title>MBProgressHUD(1.1.0)</title>
<ellipse fill="none" stroke="#000000" cx="1102.7318" cy="-250" rx="97.1294" ry="18"/>
<text text-anchor="middle" x="1102.7318" y="-245.8" font-family="Times,serif" font-size="14.00" fill="#000000">MBProgressHUD(1.1.0)</text>
</g>
<!-- Ground(0.0.1)&#45;&gt;MBProgressHUD(1.1.0) -->
<g id="edge15" class="edge">
<title>Ground(0.0.1)&#45;&gt;MBProgressHUD(1.1.0)</title>
<path fill="none" stroke="#000000" d="M735.6176,-325.7118C808.1916,-310.7445 943.4232,-282.855 1027.9451,-265.4236"/>
<polygon fill="#000000" stroke="#000000" points="1028.6523,-268.8515 1037.7392,-263.4037 1027.2384,-261.9958 1028.6523,-268.8515"/>
<text text-anchor="middle" x="947.8788" y="-288.8" font-family="Times,serif" font-size="14.00" fill="#000000">(~&gt; 1.1.0)</text>
</g>
</g>
</svg>
